<mxfile host="app.diagrams.net" agent="Mozilla/5.0 (Windows NT 10.0; Win64; x64) AppleWebKit/537.36 (KHTML, like Gecko) Chrome/132.0.0.0 Safari/537.36" version="26.0.14">
  <diagram id="C5RBs43oDa-KdzZeNtuy" name="Page-1">
    <mxGraphModel dx="1325" dy="729" grid="1" gridSize="9" guides="1" tooltips="1" connect="1" arrows="1" fold="1" page="1" pageScale="1" pageWidth="1200" pageHeight="1920" math="0" shadow="0">
      <root>
        <mxCell id="WIyWlLk6GJQsqaUBKTNV-0" />
        <mxCell id="WIyWlLk6GJQsqaUBKTNV-1" parent="WIyWlLk6GJQsqaUBKTNV-0" />
        <mxCell id="zkfFHV4jXpPFQw0GAbJ--0" value="Cliente" style="swimlane;fontStyle=0;align=center;verticalAlign=top;childLayout=stackLayout;horizontal=1;startSize=26;horizontalStack=0;resizeParent=1;resizeLast=0;collapsible=1;marginBottom=0;rounded=0;shadow=0;strokeWidth=1;" parent="WIyWlLk6GJQsqaUBKTNV-1" vertex="1">
          <mxGeometry x="349" y="144" width="200" height="258" as="geometry">
            <mxRectangle x="230" y="140" width="160" height="26" as="alternateBounds" />
          </mxGeometry>
        </mxCell>
        <mxCell id="zkfFHV4jXpPFQw0GAbJ--3" value="username: String" style="text;align=left;verticalAlign=top;spacingLeft=4;spacingRight=4;overflow=hidden;rotatable=0;points=[[0,0.5],[1,0.5]];portConstraint=eastwest;rounded=0;shadow=0;html=0;" parent="zkfFHV4jXpPFQw0GAbJ--0" vertex="1">
          <mxGeometry y="26" width="200" height="26" as="geometry" />
        </mxCell>
        <mxCell id="DgNGuxFc834xRQPZXvwP-4" value="prendas: List&amp;lt;Prenda&amp;gt;" style="text;strokeColor=none;fillColor=none;align=left;verticalAlign=top;spacingLeft=4;spacingRight=4;overflow=hidden;rotatable=0;points=[[0,0.5],[1,0.5]];portConstraint=eastwest;whiteSpace=wrap;html=1;" parent="zkfFHV4jXpPFQw0GAbJ--0" vertex="1">
          <mxGeometry y="52" width="200" height="24" as="geometry" />
        </mxCell>
        <mxCell id="DgNGuxFc834xRQPZXvwP-8" value="conjuntos: List&amp;lt;Conjunto&amp;gt;" style="text;strokeColor=none;fillColor=none;align=left;verticalAlign=top;spacingLeft=4;spacingRight=4;overflow=hidden;rotatable=0;points=[[0,0.5],[1,0.5]];portConstraint=eastwest;whiteSpace=wrap;html=1;" parent="zkfFHV4jXpPFQw0GAbJ--0" vertex="1">
          <mxGeometry y="76" width="200" height="26" as="geometry" />
        </mxCell>
        <mxCell id="DgNGuxFc834xRQPZXvwP-9" value="favoritoPrendas: List&amp;lt;Prenda&amp;gt;" style="text;strokeColor=none;fillColor=none;align=left;verticalAlign=top;spacingLeft=4;spacingRight=4;overflow=hidden;rotatable=0;points=[[0,0.5],[1,0.5]];portConstraint=eastwest;whiteSpace=wrap;html=1;" parent="zkfFHV4jXpPFQw0GAbJ--0" vertex="1">
          <mxGeometry y="102" width="200" height="26" as="geometry" />
        </mxCell>
        <mxCell id="DgNGuxFc834xRQPZXvwP-10" value="favoritoConjuntos: List&amp;lt;Conjunto&amp;gt;" style="text;strokeColor=none;fillColor=none;align=left;verticalAlign=top;spacingLeft=4;spacingRight=4;overflow=hidden;rotatable=0;points=[[0,0.5],[1,0.5]];portConstraint=eastwest;whiteSpace=wrap;html=1;" parent="zkfFHV4jXpPFQw0GAbJ--0" vertex="1">
          <mxGeometry y="128" width="200" height="26" as="geometry" />
        </mxCell>
        <mxCell id="DgNGuxFc834xRQPZXvwP-11" value="fechaRegistro: LocalDateTime" style="text;strokeColor=none;fillColor=none;align=left;verticalAlign=top;spacingLeft=4;spacingRight=4;overflow=hidden;rotatable=0;points=[[0,0.5],[1,0.5]];portConstraint=eastwest;whiteSpace=wrap;html=1;" parent="zkfFHV4jXpPFQw0GAbJ--0" vertex="1">
          <mxGeometry y="154" width="200" height="26" as="geometry" />
        </mxCell>
        <mxCell id="DgNGuxFc834xRQPZXvwP-12" value="enable: Boolean" style="text;strokeColor=none;fillColor=none;align=left;verticalAlign=top;spacingLeft=4;spacingRight=4;overflow=hidden;rotatable=0;points=[[0,0.5],[1,0.5]];portConstraint=eastwest;whiteSpace=wrap;html=1;" parent="zkfFHV4jXpPFQw0GAbJ--0" vertex="1">
          <mxGeometry y="180" width="200" height="26" as="geometry" />
        </mxCell>
        <mxCell id="m85d_sn0txxrarvjNHWn-1" value="seguidores: List&amp;lt;Usuario&amp;gt;" style="text;strokeColor=none;fillColor=none;align=left;verticalAlign=top;spacingLeft=4;spacingRight=4;overflow=hidden;rotatable=0;points=[[0,0.5],[1,0.5]];portConstraint=eastwest;whiteSpace=wrap;html=1;" vertex="1" parent="zkfFHV4jXpPFQw0GAbJ--0">
          <mxGeometry y="206" width="200" height="26" as="geometry" />
        </mxCell>
        <mxCell id="m85d_sn0txxrarvjNHWn-2" value="seguidos: List&amp;lt;Usuarios&amp;gt;" style="text;strokeColor=none;fillColor=none;align=left;verticalAlign=top;spacingLeft=4;spacingRight=4;overflow=hidden;rotatable=0;points=[[0,0.5],[1,0.5]];portConstraint=eastwest;whiteSpace=wrap;html=1;" vertex="1" parent="zkfFHV4jXpPFQw0GAbJ--0">
          <mxGeometry y="232" width="200" height="26" as="geometry" />
        </mxCell>
        <mxCell id="m85d_sn0txxrarvjNHWn-3" value="" style="endArrow=none;html=1;edgeStyle=orthogonalEdgeStyle;rounded=0;entryX=0.491;entryY=1.112;entryDx=0;entryDy=0;entryPerimeter=0;exitX=0;exitY=0.5;exitDx=0;exitDy=0;" edge="1" parent="zkfFHV4jXpPFQw0GAbJ--0" source="DgNGuxFc834xRQPZXvwP-9" target="m85d_sn0txxrarvjNHWn-2">
          <mxGeometry relative="1" as="geometry">
            <mxPoint x="-142" y="279" as="sourcePoint" />
            <mxPoint x="18" y="279" as="targetPoint" />
            <Array as="points">
              <mxPoint x="-43" y="115" />
              <mxPoint x="-43" y="279" />
              <mxPoint x="98" y="279" />
            </Array>
          </mxGeometry>
        </mxCell>
        <mxCell id="m85d_sn0txxrarvjNHWn-4" value="1*" style="edgeLabel;resizable=0;html=1;align=left;verticalAlign=bottom;" connectable="0" vertex="1" parent="m85d_sn0txxrarvjNHWn-3">
          <mxGeometry x="-1" relative="1" as="geometry">
            <mxPoint x="-43" as="offset" />
          </mxGeometry>
        </mxCell>
        <mxCell id="m85d_sn0txxrarvjNHWn-5" value="1*" style="edgeLabel;resizable=0;html=1;align=right;verticalAlign=bottom;" connectable="0" vertex="1" parent="m85d_sn0txxrarvjNHWn-3">
          <mxGeometry x="1" relative="1" as="geometry">
            <mxPoint x="30" y="19" as="offset" />
          </mxGeometry>
        </mxCell>
        <mxCell id="DgNGuxFc834xRQPZXvwP-13" value="Prenda" style="swimlane;fontStyle=0;childLayout=stackLayout;horizontal=1;startSize=26;fillColor=none;horizontalStack=0;resizeParent=1;resizeParentMax=0;resizeLast=0;collapsible=1;marginBottom=0;whiteSpace=wrap;html=1;" parent="WIyWlLk6GJQsqaUBKTNV-1" vertex="1">
          <mxGeometry x="387" y="492" width="190" height="338" as="geometry" />
        </mxCell>
        <mxCell id="DgNGuxFc834xRQPZXvwP-14" value="&lt;span style=&quot;text-wrap-mode: nowrap;&quot;&gt;id: UUID&lt;/span&gt;" style="text;strokeColor=none;fillColor=none;align=left;verticalAlign=top;spacingLeft=4;spacingRight=4;overflow=hidden;rotatable=0;points=[[0,0.5],[1,0.5]];portConstraint=eastwest;whiteSpace=wrap;html=1;" parent="DgNGuxFc834xRQPZXvwP-13" vertex="1">
          <mxGeometry y="26" width="190" height="26" as="geometry" />
        </mxCell>
        <mxCell id="DgNGuxFc834xRQPZXvwP-15" value="&lt;span style=&quot;text-wrap-mode: nowrap;&quot;&gt;nombre: String&lt;/span&gt;" style="text;strokeColor=none;fillColor=none;align=left;verticalAlign=top;spacingLeft=4;spacingRight=4;overflow=hidden;rotatable=0;points=[[0,0.5],[1,0.5]];portConstraint=eastwest;whiteSpace=wrap;html=1;" parent="DgNGuxFc834xRQPZXvwP-13" vertex="1">
          <mxGeometry y="52" width="190" height="26" as="geometry" />
        </mxCell>
        <mxCell id="DgNGuxFc834xRQPZXvwP-16" value="imagen: String" style="text;strokeColor=none;fillColor=none;align=left;verticalAlign=top;spacingLeft=4;spacingRight=4;overflow=hidden;rotatable=0;points=[[0,0.5],[1,0.5]];portConstraint=eastwest;whiteSpace=wrap;html=1;" parent="DgNGuxFc834xRQPZXvwP-13" vertex="1">
          <mxGeometry y="78" width="190" height="26" as="geometry" />
        </mxCell>
        <mxCell id="DgNGuxFc834xRQPZXvwP-17" value="color: String" style="text;strokeColor=none;fillColor=none;align=left;verticalAlign=top;spacingLeft=4;spacingRight=4;overflow=hidden;rotatable=0;points=[[0,0.5],[1,0.5]];portConstraint=eastwest;whiteSpace=wrap;html=1;" parent="DgNGuxFc834xRQPZXvwP-13" vertex="1">
          <mxGeometry y="104" width="190" height="26" as="geometry" />
        </mxCell>
        <mxCell id="DgNGuxFc834xRQPZXvwP-18" value="talla: String" style="text;strokeColor=none;fillColor=none;align=left;verticalAlign=top;spacingLeft=4;spacingRight=4;overflow=hidden;rotatable=0;points=[[0,0.5],[1,0.5]];portConstraint=eastwest;whiteSpace=wrap;html=1;" parent="DgNGuxFc834xRQPZXvwP-13" vertex="1">
          <mxGeometry y="130" width="190" height="26" as="geometry" />
        </mxCell>
        <mxCell id="DgNGuxFc834xRQPZXvwP-22" value="enlaceCompra: String" style="text;strokeColor=none;fillColor=none;align=left;verticalAlign=top;spacingLeft=4;spacingRight=4;overflow=hidden;rotatable=0;points=[[0,0.5],[1,0.5]];portConstraint=eastwest;whiteSpace=wrap;html=1;" parent="DgNGuxFc834xRQPZXvwP-13" vertex="1">
          <mxGeometry y="156" width="190" height="26" as="geometry" />
        </mxCell>
        <mxCell id="DgNGuxFc834xRQPZXvwP-20" value="visibilidad: Visibilidad" style="text;strokeColor=none;fillColor=none;align=left;verticalAlign=top;spacingLeft=4;spacingRight=4;overflow=hidden;rotatable=0;points=[[0,0.5],[1,0.5]];portConstraint=eastwest;whiteSpace=wrap;html=1;" parent="DgNGuxFc834xRQPZXvwP-13" vertex="1">
          <mxGeometry y="182" width="190" height="26" as="geometry" />
        </mxCell>
        <mxCell id="DgNGuxFc834xRQPZXvwP-21" value="tags: List&amp;lt;Tags&amp;gt;" style="text;strokeColor=none;fillColor=none;align=left;verticalAlign=top;spacingLeft=4;spacingRight=4;overflow=hidden;rotatable=0;points=[[0,0.5],[1,0.5]];portConstraint=eastwest;whiteSpace=wrap;html=1;" parent="DgNGuxFc834xRQPZXvwP-13" vertex="1">
          <mxGeometry y="208" width="190" height="26" as="geometry" />
        </mxCell>
        <mxCell id="DgNGuxFc834xRQPZXvwP-32" value="fechaPublicacion: LocalDateTime" style="text;strokeColor=none;fillColor=none;align=left;verticalAlign=top;spacingLeft=4;spacingRight=4;overflow=hidden;rotatable=0;points=[[0,0.5],[1,0.5]];portConstraint=eastwest;whiteSpace=wrap;html=1;" parent="DgNGuxFc834xRQPZXvwP-13" vertex="1">
          <mxGeometry y="234" width="190" height="26" as="geometry" />
        </mxCell>
        <mxCell id="DgNGuxFc834xRQPZXvwP-19" value="tipo: TipoPrenda" style="text;strokeColor=none;fillColor=none;align=left;verticalAlign=top;spacingLeft=4;spacingRight=4;overflow=hidden;rotatable=0;points=[[0,0.5],[1,0.5]];portConstraint=eastwest;whiteSpace=wrap;html=1;" parent="DgNGuxFc834xRQPZXvwP-13" vertex="1">
          <mxGeometry y="260" width="190" height="26" as="geometry" />
        </mxCell>
        <mxCell id="DgNGuxFc834xRQPZXvwP-35" value="likes: Integer" style="text;strokeColor=none;fillColor=none;align=left;verticalAlign=top;spacingLeft=4;spacingRight=4;overflow=hidden;rotatable=0;points=[[0,0.5],[1,0.5]];portConstraint=eastwest;whiteSpace=wrap;html=1;" parent="DgNGuxFc834xRQPZXvwP-13" vertex="1">
          <mxGeometry y="286" width="190" height="26" as="geometry" />
        </mxCell>
        <mxCell id="m85d_sn0txxrarvjNHWn-23" value="usuario: Usuario" style="text;strokeColor=none;fillColor=none;align=left;verticalAlign=top;spacingLeft=4;spacingRight=4;overflow=hidden;rotatable=0;points=[[0,0.5],[1,0.5]];portConstraint=eastwest;whiteSpace=wrap;html=1;" vertex="1" parent="DgNGuxFc834xRQPZXvwP-13">
          <mxGeometry y="312" width="190" height="26" as="geometry" />
        </mxCell>
        <mxCell id="DgNGuxFc834xRQPZXvwP-27" value="&lt;i&gt;&amp;lt;&amp;lt;Enum&amp;gt;&amp;gt;&lt;/i&gt;&lt;div&gt;Visibilidad&lt;/div&gt;" style="swimlane;fontStyle=0;childLayout=stackLayout;horizontal=1;startSize=26;fillColor=none;horizontalStack=0;resizeParent=1;resizeParentMax=0;resizeLast=0;collapsible=1;marginBottom=0;whiteSpace=wrap;html=1;" parent="WIyWlLk6GJQsqaUBKTNV-1" vertex="1">
          <mxGeometry x="657" y="369" width="80" height="78" as="geometry" />
        </mxCell>
        <mxCell id="DgNGuxFc834xRQPZXvwP-28" value="Publico" style="text;strokeColor=none;fillColor=none;align=left;verticalAlign=top;spacingLeft=4;spacingRight=4;overflow=hidden;rotatable=0;points=[[0,0.5],[1,0.5]];portConstraint=eastwest;whiteSpace=wrap;html=1;" parent="DgNGuxFc834xRQPZXvwP-27" vertex="1">
          <mxGeometry y="26" width="80" height="26" as="geometry" />
        </mxCell>
        <mxCell id="DgNGuxFc834xRQPZXvwP-29" value="Privado" style="text;strokeColor=none;fillColor=none;align=left;verticalAlign=top;spacingLeft=4;spacingRight=4;overflow=hidden;rotatable=0;points=[[0,0.5],[1,0.5]];portConstraint=eastwest;whiteSpace=wrap;html=1;" parent="DgNGuxFc834xRQPZXvwP-27" vertex="1">
          <mxGeometry y="52" width="80" height="26" as="geometry" />
        </mxCell>
        <mxCell id="DgNGuxFc834xRQPZXvwP-37" value="" style="endArrow=none;html=1;edgeStyle=orthogonalEdgeStyle;rounded=0;exitX=1;exitY=0.5;exitDx=0;exitDy=0;entryX=0.25;entryY=0;entryDx=0;entryDy=0;" parent="WIyWlLk6GJQsqaUBKTNV-1" source="DgNGuxFc834xRQPZXvwP-4" target="DgNGuxFc834xRQPZXvwP-13" edge="1">
          <mxGeometry relative="1" as="geometry">
            <mxPoint x="252" y="459" as="sourcePoint" />
            <mxPoint x="412" y="459" as="targetPoint" />
            <Array as="points">
              <mxPoint x="549" y="396" />
              <mxPoint x="585" y="396" />
              <mxPoint x="585" y="468" />
              <mxPoint x="434" y="468" />
            </Array>
          </mxGeometry>
        </mxCell>
        <mxCell id="DgNGuxFc834xRQPZXvwP-38" value="1" style="edgeLabel;resizable=0;html=1;align=left;verticalAlign=bottom;" parent="DgNGuxFc834xRQPZXvwP-37" connectable="0" vertex="1">
          <mxGeometry x="-1" relative="1" as="geometry">
            <mxPoint x="9" y="179" as="offset" />
          </mxGeometry>
        </mxCell>
        <mxCell id="DgNGuxFc834xRQPZXvwP-39" value="0*" style="edgeLabel;resizable=0;html=1;align=right;verticalAlign=bottom;" parent="DgNGuxFc834xRQPZXvwP-37" connectable="0" vertex="1">
          <mxGeometry x="1" relative="1" as="geometry">
            <mxPoint x="-16" as="offset" />
          </mxGeometry>
        </mxCell>
        <mxCell id="DgNGuxFc834xRQPZXvwP-40" value="Usuario" style="swimlane;fontStyle=0;childLayout=stackLayout;horizontal=1;startSize=26;fillColor=none;horizontalStack=0;resizeParent=1;resizeParentMax=0;resizeLast=0;collapsible=1;marginBottom=0;whiteSpace=wrap;html=1;" parent="WIyWlLk6GJQsqaUBKTNV-1" vertex="1">
          <mxGeometry x="122" y="36" width="140" height="130" as="geometry" />
        </mxCell>
        <mxCell id="zkfFHV4jXpPFQw0GAbJ--1" value="id: UUID" style="text;align=left;verticalAlign=top;spacingLeft=4;spacingRight=4;overflow=hidden;rotatable=0;points=[[0,0.5],[1,0.5]];portConstraint=eastwest;" parent="DgNGuxFc834xRQPZXvwP-40" vertex="1">
          <mxGeometry y="26" width="140" height="26" as="geometry" />
        </mxCell>
        <mxCell id="zkfFHV4jXpPFQw0GAbJ--2" value="nombre: String" style="text;align=left;verticalAlign=top;spacingLeft=4;spacingRight=4;overflow=hidden;rotatable=0;points=[[0,0.5],[1,0.5]];portConstraint=eastwest;rounded=0;shadow=0;html=0;" parent="DgNGuxFc834xRQPZXvwP-40" vertex="1">
          <mxGeometry y="52" width="140" height="26" as="geometry" />
        </mxCell>
        <mxCell id="DgNGuxFc834xRQPZXvwP-7" value="contraseña: String" style="text;strokeColor=none;fillColor=none;align=left;verticalAlign=top;spacingLeft=4;spacingRight=4;overflow=hidden;rotatable=0;points=[[0,0.5],[1,0.5]];portConstraint=eastwest;whiteSpace=wrap;html=1;" parent="DgNGuxFc834xRQPZXvwP-40" vertex="1">
          <mxGeometry y="78" width="140" height="26" as="geometry" />
        </mxCell>
        <mxCell id="DgNGuxFc834xRQPZXvwP-6" value="email: String" style="text;strokeColor=none;fillColor=none;align=left;verticalAlign=top;spacingLeft=4;spacingRight=4;overflow=hidden;rotatable=0;points=[[0,0.5],[1,0.5]];portConstraint=eastwest;whiteSpace=wrap;html=1;" parent="DgNGuxFc834xRQPZXvwP-40" vertex="1">
          <mxGeometry y="104" width="140" height="26" as="geometry" />
        </mxCell>
        <mxCell id="DgNGuxFc834xRQPZXvwP-44" value="Admin" style="swimlane;fontStyle=0;childLayout=stackLayout;horizontal=1;startSize=26;fillColor=none;horizontalStack=0;resizeParent=1;resizeParentMax=0;resizeLast=0;collapsible=1;marginBottom=0;whiteSpace=wrap;html=1;" parent="WIyWlLk6GJQsqaUBKTNV-1" vertex="1">
          <mxGeometry x="122" y="252" width="140" height="52" as="geometry" />
        </mxCell>
        <mxCell id="DgNGuxFc834xRQPZXvwP-48" value="" style="endArrow=block;endSize=16;endFill=0;html=1;rounded=0;exitX=0.5;exitY=0;exitDx=0;exitDy=0;entryX=0.504;entryY=1.122;entryDx=0;entryDy=0;entryPerimeter=0;" parent="WIyWlLk6GJQsqaUBKTNV-1" source="DgNGuxFc834xRQPZXvwP-44" target="DgNGuxFc834xRQPZXvwP-6" edge="1">
          <mxGeometry width="160" relative="1" as="geometry">
            <mxPoint x="270" y="198" as="sourcePoint" />
            <mxPoint x="430" y="198" as="targetPoint" />
          </mxGeometry>
        </mxCell>
        <mxCell id="DgNGuxFc834xRQPZXvwP-49" value="" style="endArrow=block;endSize=16;endFill=0;html=1;rounded=0;exitX=0.459;exitY=-0.003;exitDx=0;exitDy=0;exitPerimeter=0;entryX=1;entryY=0.5;entryDx=0;entryDy=0;" parent="WIyWlLk6GJQsqaUBKTNV-1" source="zkfFHV4jXpPFQw0GAbJ--0" target="zkfFHV4jXpPFQw0GAbJ--2" edge="1">
          <mxGeometry width="160" relative="1" as="geometry">
            <mxPoint x="270" y="198" as="sourcePoint" />
            <mxPoint x="430" y="198" as="targetPoint" />
            <Array as="points">
              <mxPoint x="441" y="99" />
            </Array>
          </mxGeometry>
        </mxCell>
        <mxCell id="DgNGuxFc834xRQPZXvwP-50" value="Conjuntos" style="swimlane;fontStyle=0;childLayout=stackLayout;horizontal=1;startSize=26;fillColor=none;horizontalStack=0;resizeParent=1;resizeParentMax=0;resizeLast=0;collapsible=1;marginBottom=0;whiteSpace=wrap;html=1;" parent="WIyWlLk6GJQsqaUBKTNV-1" vertex="1">
          <mxGeometry x="694" y="531" width="189" height="260" as="geometry" />
        </mxCell>
        <mxCell id="DgNGuxFc834xRQPZXvwP-51" value="&lt;span style=&quot;text-wrap-mode: nowrap;&quot;&gt;id: UUID&lt;/span&gt;" style="text;strokeColor=none;fillColor=none;align=left;verticalAlign=top;spacingLeft=4;spacingRight=4;overflow=hidden;rotatable=0;points=[[0,0.5],[1,0.5]];portConstraint=eastwest;whiteSpace=wrap;html=1;" parent="DgNGuxFc834xRQPZXvwP-50" vertex="1">
          <mxGeometry y="26" width="189" height="26" as="geometry" />
        </mxCell>
        <mxCell id="DgNGuxFc834xRQPZXvwP-52" value="&lt;span style=&quot;text-wrap-mode: nowrap;&quot;&gt;nombre: String&lt;/span&gt;" style="text;strokeColor=none;fillColor=none;align=left;verticalAlign=top;spacingLeft=4;spacingRight=4;overflow=hidden;rotatable=0;points=[[0,0.5],[1,0.5]];portConstraint=eastwest;whiteSpace=wrap;html=1;" parent="DgNGuxFc834xRQPZXvwP-50" vertex="1">
          <mxGeometry y="52" width="189" height="26" as="geometry" />
        </mxCell>
        <mxCell id="DgNGuxFc834xRQPZXvwP-53" value="imagen: String" style="text;strokeColor=none;fillColor=none;align=left;verticalAlign=top;spacingLeft=4;spacingRight=4;overflow=hidden;rotatable=0;points=[[0,0.5],[1,0.5]];portConstraint=eastwest;whiteSpace=wrap;html=1;" parent="DgNGuxFc834xRQPZXvwP-50" vertex="1">
          <mxGeometry y="78" width="189" height="26" as="geometry" />
        </mxCell>
        <mxCell id="DgNGuxFc834xRQPZXvwP-59" value="prendas: List&amp;lt;Prendas&amp;gt;" style="text;strokeColor=none;fillColor=none;align=left;verticalAlign=top;spacingLeft=4;spacingRight=4;overflow=hidden;rotatable=0;points=[[0,0.5],[1,0.5]];portConstraint=eastwest;whiteSpace=wrap;html=1;" parent="DgNGuxFc834xRQPZXvwP-50" vertex="1">
          <mxGeometry y="104" width="189" height="26" as="geometry" />
        </mxCell>
        <mxCell id="DgNGuxFc834xRQPZXvwP-60" value="tags: List&amp;lt;Tags&amp;gt;" style="text;strokeColor=none;fillColor=none;align=left;verticalAlign=top;spacingLeft=4;spacingRight=4;overflow=hidden;rotatable=0;points=[[0,0.5],[1,0.5]];portConstraint=eastwest;whiteSpace=wrap;html=1;" parent="DgNGuxFc834xRQPZXvwP-50" vertex="1">
          <mxGeometry y="130" width="189" height="26" as="geometry" />
        </mxCell>
        <mxCell id="DgNGuxFc834xRQPZXvwP-61" value="visibilidad: Visibilidad" style="text;strokeColor=none;fillColor=none;align=left;verticalAlign=top;spacingLeft=4;spacingRight=4;overflow=hidden;rotatable=0;points=[[0,0.5],[1,0.5]];portConstraint=eastwest;whiteSpace=wrap;html=1;" parent="DgNGuxFc834xRQPZXvwP-50" vertex="1">
          <mxGeometry y="156" width="189" height="26" as="geometry" />
        </mxCell>
        <mxCell id="DgNGuxFc834xRQPZXvwP-62" value="fehcaPublicacion: LocalDateTime" style="text;strokeColor=none;fillColor=none;align=left;verticalAlign=top;spacingLeft=4;spacingRight=4;overflow=hidden;rotatable=0;points=[[0,0.5],[1,0.5]];portConstraint=eastwest;whiteSpace=wrap;html=1;" parent="DgNGuxFc834xRQPZXvwP-50" vertex="1">
          <mxGeometry y="182" width="189" height="26" as="geometry" />
        </mxCell>
        <mxCell id="DgNGuxFc834xRQPZXvwP-58" value="likes: Integer" style="text;strokeColor=none;fillColor=none;align=left;verticalAlign=top;spacingLeft=4;spacingRight=4;overflow=hidden;rotatable=0;points=[[0,0.5],[1,0.5]];portConstraint=eastwest;whiteSpace=wrap;html=1;" parent="DgNGuxFc834xRQPZXvwP-50" vertex="1">
          <mxGeometry y="208" width="189" height="26" as="geometry" />
        </mxCell>
        <mxCell id="m85d_sn0txxrarvjNHWn-25" value="usuario: Usuario" style="text;strokeColor=none;fillColor=none;align=left;verticalAlign=top;spacingLeft=4;spacingRight=4;overflow=hidden;rotatable=0;points=[[0,0.5],[1,0.5]];portConstraint=eastwest;whiteSpace=wrap;html=1;" vertex="1" parent="DgNGuxFc834xRQPZXvwP-50">
          <mxGeometry y="234" width="189" height="26" as="geometry" />
        </mxCell>
        <mxCell id="DgNGuxFc834xRQPZXvwP-55" value="" style="endArrow=none;html=1;edgeStyle=orthogonalEdgeStyle;rounded=0;exitX=1;exitY=0.5;exitDx=0;exitDy=0;entryX=0;entryY=0.5;entryDx=0;entryDy=0;" parent="WIyWlLk6GJQsqaUBKTNV-1" source="DgNGuxFc834xRQPZXvwP-21" target="DgNGuxFc834xRQPZXvwP-28" edge="1">
          <mxGeometry relative="1" as="geometry">
            <mxPoint x="567" y="441" as="sourcePoint" />
            <mxPoint x="727" y="441" as="targetPoint" />
            <Array as="points">
              <mxPoint x="577" y="680" />
              <mxPoint x="630" y="680" />
              <mxPoint x="630" y="408" />
            </Array>
          </mxGeometry>
        </mxCell>
        <mxCell id="DgNGuxFc834xRQPZXvwP-63" value="" style="endArrow=none;html=1;edgeStyle=orthogonalEdgeStyle;rounded=0;exitX=1;exitY=0.5;exitDx=0;exitDy=0;entryX=0.655;entryY=-0.018;entryDx=0;entryDy=0;entryPerimeter=0;" parent="WIyWlLk6GJQsqaUBKTNV-1" source="DgNGuxFc834xRQPZXvwP-28" target="DgNGuxFc834xRQPZXvwP-50" edge="1">
          <mxGeometry relative="1" as="geometry">
            <mxPoint x="972" y="522" as="sourcePoint" />
            <mxPoint x="1146" y="630" as="targetPoint" />
            <Array as="points">
              <mxPoint x="818" y="408" />
            </Array>
          </mxGeometry>
        </mxCell>
        <mxCell id="DgNGuxFc834xRQPZXvwP-64" value="" style="endArrow=none;html=1;edgeStyle=orthogonalEdgeStyle;rounded=0;entryX=0;entryY=0.5;entryDx=0;entryDy=0;" parent="WIyWlLk6GJQsqaUBKTNV-1" target="DgNGuxFc834xRQPZXvwP-59" edge="1">
          <mxGeometry relative="1" as="geometry">
            <mxPoint x="476" y="828" as="sourcePoint" />
            <mxPoint x="727" y="441" as="targetPoint" />
            <Array as="points">
              <mxPoint x="477" y="882" />
              <mxPoint x="666" y="882" />
              <mxPoint x="666" y="648" />
            </Array>
          </mxGeometry>
        </mxCell>
        <mxCell id="DgNGuxFc834xRQPZXvwP-65" value="1*" style="edgeLabel;resizable=0;html=1;align=left;verticalAlign=bottom;" parent="DgNGuxFc834xRQPZXvwP-64" connectable="0" vertex="1">
          <mxGeometry x="-1" relative="1" as="geometry">
            <mxPoint x="10" y="51" as="offset" />
          </mxGeometry>
        </mxCell>
        <mxCell id="DgNGuxFc834xRQPZXvwP-66" value="0*" style="edgeLabel;resizable=0;html=1;align=right;verticalAlign=bottom;" parent="DgNGuxFc834xRQPZXvwP-64" connectable="0" vertex="1">
          <mxGeometry x="1" relative="1" as="geometry">
            <mxPoint x="-10" as="offset" />
          </mxGeometry>
        </mxCell>
        <mxCell id="DgNGuxFc834xRQPZXvwP-67" value="Tag" style="swimlane;fontStyle=0;childLayout=stackLayout;horizontal=1;startSize=26;fillColor=none;horizontalStack=0;resizeParent=1;resizeParentMax=0;resizeLast=0;collapsible=1;marginBottom=0;whiteSpace=wrap;html=1;" parent="WIyWlLk6GJQsqaUBKTNV-1" vertex="1">
          <mxGeometry x="530" y="900" width="140" height="78" as="geometry" />
        </mxCell>
        <mxCell id="DgNGuxFc834xRQPZXvwP-68" value="&lt;span style=&quot;text-wrap-mode: nowrap;&quot;&gt;id: UUID&lt;/span&gt;" style="text;strokeColor=none;fillColor=none;align=left;verticalAlign=top;spacingLeft=4;spacingRight=4;overflow=hidden;rotatable=0;points=[[0,0.5],[1,0.5]];portConstraint=eastwest;whiteSpace=wrap;html=1;" parent="DgNGuxFc834xRQPZXvwP-67" vertex="1">
          <mxGeometry y="26" width="140" height="26" as="geometry" />
        </mxCell>
        <mxCell id="DgNGuxFc834xRQPZXvwP-69" value="nombre: String" style="text;strokeColor=none;fillColor=none;align=left;verticalAlign=top;spacingLeft=4;spacingRight=4;overflow=hidden;rotatable=0;points=[[0,0.5],[1,0.5]];portConstraint=eastwest;whiteSpace=wrap;html=1;" parent="DgNGuxFc834xRQPZXvwP-67" vertex="1">
          <mxGeometry y="52" width="140" height="26" as="geometry" />
        </mxCell>
        <mxCell id="DgNGuxFc834xRQPZXvwP-71" value="" style="endArrow=none;html=1;edgeStyle=orthogonalEdgeStyle;rounded=0;exitX=1;exitY=0.5;exitDx=0;exitDy=0;" parent="WIyWlLk6GJQsqaUBKTNV-1" source="DgNGuxFc834xRQPZXvwP-68" edge="1">
          <mxGeometry relative="1" as="geometry">
            <mxPoint x="747" y="945" as="sourcePoint" />
            <mxPoint x="803" y="792" as="targetPoint" />
            <Array as="points">
              <mxPoint x="671" y="939" />
              <mxPoint x="671" y="945" />
              <mxPoint x="803" y="945" />
            </Array>
          </mxGeometry>
        </mxCell>
        <mxCell id="DgNGuxFc834xRQPZXvwP-72" value="0*" style="edgeLabel;resizable=0;html=1;align=left;verticalAlign=bottom;" parent="DgNGuxFc834xRQPZXvwP-71" connectable="0" vertex="1">
          <mxGeometry x="-1" relative="1" as="geometry" />
        </mxCell>
        <mxCell id="DgNGuxFc834xRQPZXvwP-73" value="0*" style="edgeLabel;resizable=0;html=1;align=right;verticalAlign=bottom;" parent="DgNGuxFc834xRQPZXvwP-71" connectable="0" vertex="1">
          <mxGeometry x="1" relative="1" as="geometry">
            <mxPoint x="-11" y="28" as="offset" />
          </mxGeometry>
        </mxCell>
        <mxCell id="DgNGuxFc834xRQPZXvwP-74" value="" style="endArrow=none;html=1;edgeStyle=orthogonalEdgeStyle;rounded=0;exitX=0;exitY=0.25;exitDx=0;exitDy=0;entryX=0;entryY=0.5;entryDx=0;entryDy=0;" parent="WIyWlLk6GJQsqaUBKTNV-1" source="DgNGuxFc834xRQPZXvwP-67" edge="1">
          <mxGeometry relative="1" as="geometry">
            <mxPoint x="531" y="909" as="sourcePoint" />
            <mxPoint x="387" y="702" as="targetPoint" />
            <Array as="points">
              <mxPoint x="531" y="920" />
              <mxPoint x="531" y="945" />
              <mxPoint x="342" y="945" />
              <mxPoint x="342" y="798" />
              <mxPoint x="387" y="798" />
            </Array>
          </mxGeometry>
        </mxCell>
        <mxCell id="DgNGuxFc834xRQPZXvwP-75" value="0*" style="edgeLabel;resizable=0;html=1;align=left;verticalAlign=bottom;" parent="DgNGuxFc834xRQPZXvwP-74" connectable="0" vertex="1">
          <mxGeometry x="-1" relative="1" as="geometry">
            <mxPoint x="-27" y="-3" as="offset" />
          </mxGeometry>
        </mxCell>
        <mxCell id="DgNGuxFc834xRQPZXvwP-76" value="0*" style="edgeLabel;resizable=0;html=1;align=right;verticalAlign=bottom;" parent="DgNGuxFc834xRQPZXvwP-74" connectable="0" vertex="1">
          <mxGeometry x="1" relative="1" as="geometry">
            <mxPoint x="-9" y="90" as="offset" />
          </mxGeometry>
        </mxCell>
        <mxCell id="DgNGuxFc834xRQPZXvwP-77" value="TipoPrenda" style="swimlane;fontStyle=0;childLayout=stackLayout;horizontal=1;startSize=26;fillColor=none;horizontalStack=0;resizeParent=1;resizeParentMax=0;resizeLast=0;collapsible=1;marginBottom=0;whiteSpace=wrap;html=1;" parent="WIyWlLk6GJQsqaUBKTNV-1" vertex="1">
          <mxGeometry x="63" y="522" width="198" height="130" as="geometry" />
        </mxCell>
        <mxCell id="DgNGuxFc834xRQPZXvwP-78" value="&lt;span style=&quot;text-wrap-mode: nowrap;&quot;&gt;id: UUID&lt;/span&gt;" style="text;strokeColor=none;fillColor=none;align=left;verticalAlign=top;spacingLeft=4;spacingRight=4;overflow=hidden;rotatable=0;points=[[0,0.5],[1,0.5]];portConstraint=eastwest;whiteSpace=wrap;html=1;" parent="DgNGuxFc834xRQPZXvwP-77" vertex="1">
          <mxGeometry y="26" width="198" height="26" as="geometry" />
        </mxCell>
        <mxCell id="DgNGuxFc834xRQPZXvwP-79" value="&lt;span style=&quot;text-wrap-mode: nowrap;&quot;&gt;nombre: String&lt;/span&gt;" style="text;strokeColor=none;fillColor=none;align=left;verticalAlign=top;spacingLeft=4;spacingRight=4;overflow=hidden;rotatable=0;points=[[0,0.5],[1,0.5]];portConstraint=eastwest;whiteSpace=wrap;html=1;" parent="DgNGuxFc834xRQPZXvwP-77" vertex="1">
          <mxGeometry y="52" width="198" height="26" as="geometry" />
        </mxCell>
        <mxCell id="m85d_sn0txxrarvjNHWn-0" value="tipoPrendaPadre: TipoPrenda" style="text;strokeColor=none;fillColor=none;align=left;verticalAlign=top;spacingLeft=4;spacingRight=4;overflow=hidden;rotatable=0;points=[[0,0.5],[1,0.5]];portConstraint=eastwest;whiteSpace=wrap;html=1;" vertex="1" parent="DgNGuxFc834xRQPZXvwP-77">
          <mxGeometry y="78" width="198" height="26" as="geometry" />
        </mxCell>
        <mxCell id="DgNGuxFc834xRQPZXvwP-80" value="subtipoPrendas: List&amp;lt;TipoPrenda&amp;gt;" style="text;strokeColor=none;fillColor=none;align=left;verticalAlign=top;spacingLeft=4;spacingRight=4;overflow=hidden;rotatable=0;points=[[0,0.5],[1,0.5]];portConstraint=eastwest;whiteSpace=wrap;html=1;" parent="DgNGuxFc834xRQPZXvwP-77" vertex="1">
          <mxGeometry y="104" width="198" height="26" as="geometry" />
        </mxCell>
        <mxCell id="DgNGuxFc834xRQPZXvwP-81" value="" style="endArrow=none;html=1;edgeStyle=orthogonalEdgeStyle;rounded=0;entryX=0.5;entryY=0;entryDx=0;entryDy=0;exitX=0;exitY=0.5;exitDx=0;exitDy=0;" parent="DgNGuxFc834xRQPZXvwP-77" source="DgNGuxFc834xRQPZXvwP-79" target="DgNGuxFc834xRQPZXvwP-77" edge="1">
          <mxGeometry relative="1" as="geometry">
            <mxPoint x="-27" y="-54" as="sourcePoint" />
            <mxPoint x="133" y="-54" as="targetPoint" />
            <Array as="points">
              <mxPoint x="-18" y="65" />
              <mxPoint x="-18" y="-36" />
              <mxPoint x="99" y="-36" />
            </Array>
          </mxGeometry>
        </mxCell>
        <mxCell id="DgNGuxFc834xRQPZXvwP-82" value="0..1" style="edgeLabel;resizable=0;html=1;align=left;verticalAlign=bottom;" parent="DgNGuxFc834xRQPZXvwP-81" connectable="0" vertex="1">
          <mxGeometry x="-1" relative="1" as="geometry">
            <mxPoint x="-27" y="25" as="offset" />
          </mxGeometry>
        </mxCell>
        <mxCell id="DgNGuxFc834xRQPZXvwP-83" value="0*" style="edgeLabel;resizable=0;html=1;align=right;verticalAlign=bottom;" parent="DgNGuxFc834xRQPZXvwP-81" connectable="0" vertex="1">
          <mxGeometry x="1" relative="1" as="geometry">
            <mxPoint x="36" y="-9" as="offset" />
          </mxGeometry>
        </mxCell>
        <mxCell id="DgNGuxFc834xRQPZXvwP-84" value="" style="endArrow=none;html=1;edgeStyle=orthogonalEdgeStyle;rounded=0;entryX=0;entryY=0.5;entryDx=0;entryDy=0;" parent="WIyWlLk6GJQsqaUBKTNV-1" edge="1" target="DgNGuxFc834xRQPZXvwP-17">
          <mxGeometry relative="1" as="geometry">
            <mxPoint x="261" y="585" as="sourcePoint" />
            <mxPoint x="369" y="603" as="targetPoint" />
            <Array as="points">
              <mxPoint x="261" y="586" />
              <mxPoint x="387" y="586" />
            </Array>
          </mxGeometry>
        </mxCell>
        <mxCell id="DgNGuxFc834xRQPZXvwP-85" value="1*" style="edgeLabel;resizable=0;html=1;align=left;verticalAlign=bottom;" parent="DgNGuxFc834xRQPZXvwP-84" connectable="0" vertex="1">
          <mxGeometry x="-1" relative="1" as="geometry" />
        </mxCell>
        <mxCell id="DgNGuxFc834xRQPZXvwP-86" value="1" style="edgeLabel;resizable=0;html=1;align=right;verticalAlign=bottom;" parent="DgNGuxFc834xRQPZXvwP-84" connectable="0" vertex="1">
          <mxGeometry x="1" relative="1" as="geometry">
            <mxPoint x="-9" y="-24" as="offset" />
          </mxGeometry>
        </mxCell>
        <mxCell id="m85d_sn0txxrarvjNHWn-6" value="Comentario" style="swimlane;fontStyle=0;childLayout=stackLayout;horizontal=1;startSize=26;fillColor=none;horizontalStack=0;resizeParent=1;resizeParentMax=0;resizeLast=0;collapsible=1;marginBottom=0;whiteSpace=wrap;html=1;" vertex="1" parent="WIyWlLk6GJQsqaUBKTNV-1">
          <mxGeometry x="482" y="1026" width="189" height="130" as="geometry" />
        </mxCell>
        <mxCell id="m85d_sn0txxrarvjNHWn-7" value="&lt;span style=&quot;text-wrap-mode: nowrap;&quot;&gt;id: UUID&lt;/span&gt;" style="text;strokeColor=none;fillColor=none;align=left;verticalAlign=top;spacingLeft=4;spacingRight=4;overflow=hidden;rotatable=0;points=[[0,0.5],[1,0.5]];portConstraint=eastwest;whiteSpace=wrap;html=1;" vertex="1" parent="m85d_sn0txxrarvjNHWn-6">
          <mxGeometry y="26" width="189" height="26" as="geometry" />
        </mxCell>
        <mxCell id="m85d_sn0txxrarvjNHWn-8" value="cliente: Cliente" style="text;strokeColor=none;fillColor=none;align=left;verticalAlign=top;spacingLeft=4;spacingRight=4;overflow=hidden;rotatable=0;points=[[0,0.5],[1,0.5]];portConstraint=eastwest;whiteSpace=wrap;html=1;" vertex="1" parent="m85d_sn0txxrarvjNHWn-6">
          <mxGeometry y="52" width="189" height="26" as="geometry" />
        </mxCell>
        <mxCell id="m85d_sn0txxrarvjNHWn-9" value="texto: String" style="text;strokeColor=none;fillColor=none;align=left;verticalAlign=top;spacingLeft=4;spacingRight=4;overflow=hidden;rotatable=0;points=[[0,0.5],[1,0.5]];portConstraint=eastwest;whiteSpace=wrap;html=1;" vertex="1" parent="m85d_sn0txxrarvjNHWn-6">
          <mxGeometry y="78" width="189" height="26" as="geometry" />
        </mxCell>
        <mxCell id="m85d_sn0txxrarvjNHWn-17" value="fechaPublicación: LocalDateTime" style="text;strokeColor=none;fillColor=none;align=left;verticalAlign=top;spacingLeft=4;spacingRight=4;overflow=hidden;rotatable=0;points=[[0,0.5],[1,0.5]];portConstraint=eastwest;whiteSpace=wrap;html=1;" vertex="1" parent="m85d_sn0txxrarvjNHWn-6">
          <mxGeometry y="104" width="189" height="26" as="geometry" />
        </mxCell>
        <mxCell id="m85d_sn0txxrarvjNHWn-10" value="" style="endArrow=none;html=1;edgeStyle=orthogonalEdgeStyle;rounded=0;entryX=0;entryY=0.5;entryDx=0;entryDy=0;exitX=0;exitY=0.5;exitDx=0;exitDy=0;" edge="1" parent="WIyWlLk6GJQsqaUBKTNV-1" source="DgNGuxFc834xRQPZXvwP-32" target="m85d_sn0txxrarvjNHWn-8">
          <mxGeometry relative="1" as="geometry">
            <mxPoint x="378" y="873" as="sourcePoint" />
            <mxPoint x="538" y="873" as="targetPoint" />
            <Array as="points">
              <mxPoint x="252" y="739" />
              <mxPoint x="252" y="1091" />
            </Array>
          </mxGeometry>
        </mxCell>
        <mxCell id="m85d_sn0txxrarvjNHWn-11" value="0*" style="edgeLabel;resizable=0;html=1;align=left;verticalAlign=bottom;" connectable="0" vertex="1" parent="m85d_sn0txxrarvjNHWn-10">
          <mxGeometry x="-1" relative="1" as="geometry">
            <mxPoint x="-27" y="-1" as="offset" />
          </mxGeometry>
        </mxCell>
        <mxCell id="m85d_sn0txxrarvjNHWn-12" value="1" style="edgeLabel;resizable=0;html=1;align=right;verticalAlign=bottom;" connectable="0" vertex="1" parent="m85d_sn0txxrarvjNHWn-10">
          <mxGeometry x="1" relative="1" as="geometry" />
        </mxCell>
        <mxCell id="m85d_sn0txxrarvjNHWn-13" value="" style="endArrow=none;html=1;edgeStyle=orthogonalEdgeStyle;rounded=0;exitX=1;exitY=0.5;exitDx=0;exitDy=0;entryX=1;entryY=0.5;entryDx=0;entryDy=0;" edge="1" parent="WIyWlLk6GJQsqaUBKTNV-1" source="m85d_sn0txxrarvjNHWn-8" target="DgNGuxFc834xRQPZXvwP-58">
          <mxGeometry relative="1" as="geometry">
            <mxPoint x="378" y="873" as="sourcePoint" />
            <mxPoint x="538" y="873" as="targetPoint" />
          </mxGeometry>
        </mxCell>
        <mxCell id="m85d_sn0txxrarvjNHWn-14" value="1" style="edgeLabel;resizable=0;html=1;align=left;verticalAlign=bottom;" connectable="0" vertex="1" parent="m85d_sn0txxrarvjNHWn-13">
          <mxGeometry x="-1" relative="1" as="geometry" />
        </mxCell>
        <mxCell id="m85d_sn0txxrarvjNHWn-15" value="0*" style="edgeLabel;resizable=0;html=1;align=right;verticalAlign=bottom;" connectable="0" vertex="1" parent="m85d_sn0txxrarvjNHWn-13">
          <mxGeometry x="1" relative="1" as="geometry">
            <mxPoint x="35" as="offset" />
          </mxGeometry>
        </mxCell>
        <mxCell id="m85d_sn0txxrarvjNHWn-18" value="" style="endArrow=none;html=1;edgeStyle=orthogonalEdgeStyle;rounded=0;exitX=1;exitY=0.5;exitDx=0;exitDy=0;entryX=1;entryY=0.5;entryDx=0;entryDy=0;" edge="1" parent="WIyWlLk6GJQsqaUBKTNV-1" source="DgNGuxFc834xRQPZXvwP-11" target="m85d_sn0txxrarvjNHWn-9">
          <mxGeometry relative="1" as="geometry">
            <mxPoint x="723" y="277" as="sourcePoint" />
            <mxPoint x="883" y="277" as="targetPoint" />
            <Array as="points">
              <mxPoint x="1035" y="311" />
              <mxPoint x="1035" y="1117" />
            </Array>
          </mxGeometry>
        </mxCell>
        <mxCell id="m85d_sn0txxrarvjNHWn-19" value="1*" style="edgeLabel;resizable=0;html=1;align=left;verticalAlign=bottom;" connectable="0" vertex="1" parent="m85d_sn0txxrarvjNHWn-18">
          <mxGeometry x="-1" relative="1" as="geometry" />
        </mxCell>
        <mxCell id="m85d_sn0txxrarvjNHWn-20" value="1*" style="edgeLabel;resizable=0;html=1;align=right;verticalAlign=bottom;" connectable="0" vertex="1" parent="m85d_sn0txxrarvjNHWn-18">
          <mxGeometry x="1" relative="1" as="geometry">
            <mxPoint x="31" y="26" as="offset" />
          </mxGeometry>
        </mxCell>
      </root>
    </mxGraphModel>
  </diagram>
</mxfile>
